<?xml version="1.0" standalone="no"?>
<!DOCTYPE svg PUBLIC "-//W3C//DTD SVG 20010904//EN"
 "http://www.w3.org/TR/2001/REC-SVG-20010904/DTD/svg10.dtd">
<svg version="1.0" xmlns="http://www.w3.org/2000/svg"
 width="2356.000000pt" height="1813.000000pt" viewBox="0 0 2356.000000 1813.000000"
 preserveAspectRatio="xMidYMid meet">

<g transform="translate(0.000000,1813.000000) scale(0.100000,-0.100000)"
fill="#000000" stroke="none">
<path d="M11649 16620 c-71 -11 -214 -47 -454 -115 -1044 -294 -2463 -591
-3910 -820 -339 -53 -966 -142 -1305 -185 -91 -11 -212 -27 -270 -35 -135 -20
-547 -67 -910 -105 -157 -16 -319 -34 -360 -40 -158 -20 -386 -41 -557 -50
-98 -5 -213 -16 -257 -25 -43 -8 -138 -20 -210 -25 -72 -5 -219 -19 -326 -30
-107 -11 -289 -25 -405 -30 -115 -5 -219 -12 -230 -15 -30 -7 -430 -44 -665
-60 -687 -49 -1088 -84 -1131 -99 -132 -47 -188 -167 -189 -406 0 -47 -9 -143
-21 -215 -26 -168 -38 -631 -38 -1515 -1 -710 11 -1121 34 -1268 9 -52 22
-157 31 -231 8 -75 21 -174 29 -221 8 -47 22 -137 30 -200 49 -359 163 -877
250 -1135 24 -71 64 -197 90 -280 67 -213 223 -617 325 -841 84 -184 259 -520
419 -804 136 -243 455 -704 675 -978 631 -785 1239 -1365 2166 -2068 755 -573
1692 -1159 2720 -1701 1039 -549 2361 -1154 3520 -1611 1007 -397 920 -367
1065 -367 126 1 142 5 500 145 1361 530 2376 976 3448 1511 1157 579 2007
1074 2851 1661 372 260 1024 758 1256 962 475 417 873 826 1287 1323 208 250
323 402 505 673 259 384 406 638 592 1021 203 419 303 667 454 1134 188 581
258 885 347 1510 19 132 39 290 45 350 6 61 18 160 26 220 9 61 19 241 24 400
5 160 14 319 19 355 35 221 38 734 6 965 -9 64 -19 259 -25 464 -5 194 -17
413 -25 485 -9 72 -20 199 -25 281 -12 179 -28 242 -76 295 -80 88 -197 111
-749 150 -82 6 -332 26 -555 45 -529 45 -766 63 -925 70 -244 11 -1246 107
-2030 195 -198 22 -441 49 -540 60 -397 45 -1191 151 -1650 221 -535 82 -1293
208 -1490 249 -55 11 -197 39 -315 61 -744 139 -1733 371 -2518 589 -101 28
-215 57 -254 65 -92 20 -228 26 -299 15z m286 -151 c44 -11 166 -45 270 -74
477 -134 1335 -345 1795 -440 69 -14 197 -41 285 -60 88 -19 257 -52 375 -74
118 -22 271 -52 340 -66 69 -14 163 -32 210 -40 47 -7 164 -27 260 -44 363
-63 458 -80 555 -95 55 -9 210 -33 345 -55 135 -22 261 -42 280 -44 237 -33
531 -77 715 -108 39 -7 98 -14 133 -16 38 -3 62 -9 60 -15 -10 -29 -255 -367
-266 -368 -7 0 -11 -4 -8 -9 18 -28 -75 -18 -1024 110 -80 11 -228 33 -330 49
-102 16 -248 38 -325 50 -168 26 -671 113 -900 156 -508 96 -1041 207 -1470
307 -266 63 -733 183 -1015 262 -292 82 -422 115 -453 115 -15 0 -78 -13 -140
-30 -61 -16 -123 -32 -137 -36 -28 -6 -178 -49 -226 -64 -17 -6 -82 -23 -145
-39 -63 -17 -159 -42 -214 -56 -161 -42 -434 -111 -515 -129 -41 -10 -129 -31
-195 -46 -66 -16 -163 -38 -215 -50 -52 -11 -113 -25 -135 -30 -39 -9 -186
-40 -475 -99 -80 -17 -219 -44 -310 -61 -91 -17 -183 -35 -205 -40 -22 -6
-143 -28 -270 -50 -126 -22 -277 -49 -335 -60 -58 -10 -193 -33 -300 -49 -107
-17 -283 -45 -390 -62 -107 -17 -226 -34 -265 -39 -86 -10 -327 -44 -495 -70
-69 -10 -170 -24 -225 -30 -55 -6 -127 -15 -160 -20 -66 -10 -229 -30 -495
-60 -96 -11 -269 -31 -385 -45 -236 -27 -624 -69 -790 -85 -60 -6 -171 -17
-245 -25 -247 -25 -551 -53 -825 -75 -71 -6 -200 -17 -285 -25 -85 -8 -218
-19 -295 -25 -77 -6 -212 -17 -300 -25 -88 -7 -234 -19 -325 -25 -91 -6 -210
-15 -265 -20 -55 -5 -201 -16 -325 -26 -232 -17 -274 -25 -290 -53 -5 -10 -11
-69 -15 -132 -3 -63 -8 -121 -10 -129 -5 -17 -31 -367 -40 -530 -3 -58 -11
-179 -18 -270 -7 -103 -12 -365 -11 -695 1 -472 4 -569 28 -890 14 -198 29
-367 31 -375 3 -8 12 -78 20 -155 8 -77 22 -176 29 -220 8 -44 20 -120 26
-170 11 -90 46 -275 95 -500 25 -118 39 -169 76 -290 10 -33 23 -85 29 -115
17 -94 117 -400 226 -690 69 -183 77 -202 137 -330 27 -58 67 -145 89 -195 21
-49 43 -97 47 -105 5 -9 44 -83 87 -165 122 -234 298 -530 416 -700 38 -55
103 -149 145 -210 146 -210 457 -592 673 -825 256 -278 722 -723 930 -889 25
-19 79 -65 121 -101 74 -63 95 -79 264 -212 84 -66 271 -207 390 -293 39 -28
88 -65 110 -81 22 -16 58 -41 80 -56 22 -15 105 -72 185 -127 80 -55 190 -128
245 -162 55 -35 116 -75 135 -89 88 -67 813 -502 1030 -618 36 -19 70 -38 75
-42 11 -9 277 -154 423 -232 54 -28 124 -65 157 -83 85 -46 689 -348 943 -471
117 -56 223 -112 237 -122 l25 -20 -191 -274 c-105 -150 -198 -279 -205 -287
-15 -16 -41 -8 -204 66 -893 404 -2023 1019 -2845 1551 -496 320 -1099 755
-1430 1032 -44 36 -100 81 -125 99 -25 18 -169 142 -320 276 -502 444 -1019
996 -1365 1456 -11 15 -59 78 -106 140 -117 156 -401 587 -486 739 -135 240
-291 537 -351 671 -173 385 -250 573 -313 761 -41 122 -115 366 -124 408 -4
19 -13 45 -21 57 -7 12 -23 61 -34 110 -11 48 -31 129 -45 178 -14 50 -35 135
-46 190 -11 55 -29 136 -39 180 -32 138 -69 345 -85 480 -9 72 -20 146 -25
166 -6 20 -17 110 -25 200 -8 90 -21 200 -29 245 -24 130 -36 555 -36 1239 0
789 14 1341 35 1451 9 44 20 174 26 289 l10 210 36 33 c33 29 42 32 100 32 35
0 145 7 246 15 553 45 697 56 847 65 91 5 185 12 210 15 25 3 126 12 225 20
99 9 187 18 195 21 8 3 103 9 210 14 164 7 724 55 1055 90 50 5 164 16 255 25
91 8 265 26 385 40 121 14 267 30 325 35 58 5 164 16 235 24 72 9 189 23 260
31 72 9 175 20 230 25 55 6 113 12 130 15 40 6 214 29 460 60 110 15 310 42
445 61 135 19 283 39 330 45 47 6 153 22 235 35 83 13 240 37 350 54 181 28
378 61 630 105 50 9 155 27 235 41 548 94 1391 268 1980 409 58 14 132 32 165
39 166 38 718 182 925 241 401 114 438 119 615 74z m4771 -1931 c46 -90 41
-591 -11 -976 -62 -461 -91 -815 -105 -1272 -7 -246 -14 -335 -29 -407 -33
-158 -93 -258 -176 -294 -105 -45 -330 -51 -436 -10 -61 23 -144 89 -154 122
-11 32 19 64 82 89 115 46 143 81 143 179 0 256 -451 860 -882 1181 -210 157
-512 314 -848 443 -536 206 -999 267 -2025 267 -410 0 -616 -8 -905 -36 -1390
-131 -2435 -620 -3105 -1451 -134 -166 -318 -450 -401 -618 -142 -286 -171
-427 -193 -935 -50 -1150 13 -2297 150 -2728 79 -246 277 -559 640 -1012 609
-760 994 -1091 1517 -1305 326 -133 833 -275 1532 -429 678 -149 1061 -210
1430 -226 305 -14 407 -41 476 -126 83 -104 333 -153 713 -141 190 7 287 21
398 58 78 26 103 54 103 118 -1 93 -72 216 -245 421 -191 227 -295 451 -359
772 -47 231 -58 376 -62 787 -2 211 -8 438 -14 505 -35 383 -128 684 -278 896
-60 84 -259 288 -342 350 -169 125 -366 185 -815 245 -444 60 -582 110 -463
168 89 44 323 45 963 6 211 -13 535 -7 583 11 22 8 37 23 46 45 8 19 26 41 39
50 37 24 153 31 200 12 34 -15 37 -19 37 -57 0 -22 -10 -60 -22 -83 -28 -56
-29 -117 -2 -154 49 -67 154 -105 701 -254 l402 -109 378 221 c971 568 1126
627 1204 455 50 -111 6 -320 -151 -709 -91 -228 -136 -470 -174 -932 -35 -421
-39 -561 -43 -1662 -3 -618 -7 -1123 -11 -1123 -3 0 -254 -54 -556 -119 -303
-66 -634 -136 -736 -155 -1210 -232 -2395 -300 -3495 -200 -1830 165 -3463
791 -4824 1848 -200 156 -308 254 -426 386 -259 291 -465 608 -685 1055 -235
475 -389 917 -464 1325 -79 433 -59 873 69 1505 122 605 273 1086 379 1212 44
52 147 89 182 65 72 -48 37 -231 -161 -832 -222 -679 -197 -812 164 -851 184
-20 459 13 571 69 99 49 120 118 160 546 60 644 414 1277 1076 1926 705 691
1477 1148 2306 1364 459 121 975 169 1979 185 793 13 1708 -5 2264 -44 459
-33 622 -56 1133 -165 l379 -81 299 187 c441 276 644 389 784 438 72 24 97 21
116 -16z"/>
<path d="M11763 16315 c2 -23 -3 -30 -28 -37 -16 -5 -49 -6 -72 -3 -51 7 -63
-8 -33 -40 47 -50 177 -57 260 -15 34 18 41 25 38 47 -4 32 -51 58 -120 68
-47 7 -47 7 -45 -20z"/>
<path d="M10789 16074 c-1 -5 -1 -16 0 -25 2 -22 -51 -43 -86 -35 -51 13 -67
11 -71 -5 -8 -42 118 -86 210 -73 56 7 112 41 116 71 5 31 -47 63 -113 70 -30
3 -56 2 -56 -3z"/>
<path d="M12800 16055 c0 -20 -6 -25 -36 -31 -22 -4 -45 -2 -59 6 -28 15 -45
6 -45 -24 0 -52 163 -86 245 -51 42 17 61 56 42 86 -13 21 -64 39 -114 39 -28
0 -33 -4 -33 -25z"/>
<path d="M2405 14831 c-3 -6 2 -14 12 -19 15 -9 15 -12 3 -27 -12 -14 -25 -16
-72 -12 -60 5 -84 -6 -72 -36 5 -15 24 -24 93 -46 46 -15 71 -14 140 5 70 20
92 50 66 90 -23 35 -154 70 -170 45z"/>
<path d="M1087 14714 c-3 -4 3 -14 14 -23 19 -15 20 -18 5 -30 -18 -16 -88
-19 -128 -7 -25 7 -28 6 -28 -17 0 -18 10 -32 38 -49 32 -20 50 -23 132 -23
77 0 101 4 128 20 44 27 53 62 21 86 -42 32 -164 61 -182 43z"/>
<path d="M1042 14070 c10 -15 10 -22 0 -32 -12 -12 -78 -15 -127 -7 -15 3 -21
-2 -23 -19 -3 -19 6 -27 54 -49 92 -42 207 -31 258 26 17 19 18 24 6 46 -15
28 -88 55 -147 55 -31 0 -32 -2 -21 -20z"/>
<path d="M1053 12163 c-27 -5 -29 -12 -6 -28 28 -21 -19 -39 -83 -31 -66 8
-79 -7 -37 -44 53 -48 193 -51 260 -6 37 24 39 32 18 63 -13 19 -104 56 -124
52 -3 -1 -16 -4 -28 -6z"/>
<path d="M1598 9195 c-4 -4 -4 -14 -1 -22 9 -23 -16 -33 -79 -33 -58 0 -68 -8
-50 -37 29 -46 189 -58 257 -20 52 29 57 57 14 88 -32 22 -126 39 -141 24z"/>
<path d="M3696 6192 c-3 -5 1 -12 9 -16 51 -19 -29 -51 -88 -35 -56 15 -69 -6
-26 -42 54 -47 202 -50 261 -6 35 26 35 37 -2 72 -24 23 -41 30 -89 33 -33 2
-61 0 -65 -6z"/>
<path d="M6800 3911 c0 -5 6 -11 13 -14 27 -10 -12 -29 -69 -33 -65 -4 -67 -5
-58 -28 25 -64 283 -62 297 3 6 31 -5 48 -42 64 -40 18 -141 23 -141 8z"/>
<path d="M5570 9655 c-147 -24 -220 -61 -220 -112 0 -57 91 -106 295 -158 172
-44 276 -58 388 -53 102 4 143 20 181 71 30 40 29 121 -2 164 -29 41 -109 79
-192 93 -89 14 -347 11 -450 -5z"/>
</g>
</svg>
